# xmcd
#
# Track frame offsets: 
#        150
#        19477
#        32620
#        48659
#        66412
#        82848
#        95447
#        109657
#        126175
#        137794
#        152513
#
# Disc length: 2172 seconds
#
# Revision: 2
# Processed by: cddbd v1.5.1PL2 Copyright (c) Steve Scherf et al.
# Submitted via: ExactAudioCopy v0.95b4
#
DISCID=8f087a0b
DTITLE=Arsen Dedic - Kino Sloboda
DYEAR=1987
DGENRE=Chanson
TTITLE0=Parobrod Rex
TTITLE1=Original soundtrack (Amando mio)
TTITLE2=Plavi andjeo
TTITLE3=Companera
TTITLE4=Cisti, bijeli snijeg
TTITLE5=Tko stoji iza mene
TTITLE6=Automati
TTITLE7=Otkako te ne volim
TTITLE8=Napudraj nos
TTITLE9=Provincijski kino
TTITLE10=Zavrsni song
EXTD=
EXTT0=
EXTT1=
EXTT2=
EXTT3=
EXTT4=
EXTT5=
EXTT6=
EXTT7=
EXTT8=
EXTT9=
EXTT10=
PLAYORDER=
